<svg width="24px" height="20px" viewBox="0 0 24 20" version="1.1" xmlns="http://www.w3.org/2000/svg">
    <path d="M8.53122966,14.0625094 C13.2439298,14.0625094
17.0624593,11.1258137 17.0624593,7.50002503 C17.0624593,3.87423641 13.2439298,0.93754068 8.53122966,0.93754068 C3.81852956,0.93754068 0,3.87423641 0,7.50002503 C0,8.90684961 0.578302912,10.2029643 1.55859003,11.2734535 C1.00896595,12.5121305 0.102538818,13.4965031 0.0902421707,13.5087998 C0,13.6031275 -0.0245932946,13.7425963 0.0287188799,13.8656429 C0.0820310544,13.9886894 0.19686652,14.0625094 0.328124218,14.0625094 C1.82927649,14.0625094 3.07207901,13.5580264 3.96620949,13.0371212 C5.28691748,13.681073 6.84959304,14.0625094 8.53122966,14.0625094 Z M23.2968195,19.3124969 C23.4280772,19.3124969 23.5469982,19.2345513 23.5962248,19.1156304 C23.649537,18.9966693 23.6249437,18.8572405 23.5347015,18.7587873 C23.5224049,18.7464906 22.6159777,17.7662035 22.0663536,16.523441 C23.0466408,15.4570373 23.6249437,14.1568371 23.6249437,12.7500125 C23.6249437,10.0060577 21.430613,7.65587603 18.321644,6.67562896 C18.358534,6.94631542 18.3749562,7.22112746 18.3749562,7.50002503 C18.3749562,11.8435854
13.9575759,15.3750063 8.53122966,15.3750063 C8.08826998,15.3750063 7.65760694,15.3422018 7.23102944,15.2970607 C8.52301854,17.6554535 11.5581676,19.3124969 15.093714,19.3124969 C16.7753506,19.3124969 18.3380262,18.935146 19.6587342,18.2871087 C20.5528647,18.8080139 21.7956672,19.3124969 23.2968195,19.3124969 Z" id="qa_button" fill="#757575" fill-rule="nonzero">
   </path>
</svg>
