<svg width="21px" height="22px" viewBox="0 0 21 22" version="1.1" xmlns="http://www.w3.org/2000/svg">
        <path d="M17.0624593,21.6249937 C17.7872005,21.6249937
18.3749562,21.037238 18.3749562,20.3124969 L18.3749562,16.3750063 L20.3437015,16.3750063 C20.7062723,16.3750063 20.9999499,16.0813287 20.9999499,15.7187578 L20.9999499,11.1250188 C20.9999499,9.67513591 19.8248391,8.50002503 18.3749562,8.50002503 L18.3749562,3.79349329 C18.3749562,3.44526185 18.2367291,3.11181042 17.9906359,2.86531671 L16.1342827,1.00936411 C15.8881896,0.763270943 15.5543376,0.625043809 15.2061062,0.625043809 L3.93749061,0.625043809 C3.21274945,0.625043809 2.62499374,1.21279952 2.62499374,1.93754068 L2.62499374,8.50002503 C1.17511088,8.50002503 0,9.67513591 0,11.1250188 L0,15.7187578 C0,16.0813287 0.293677584,16.3750063 0.656248435,16.3750063 L2.62499374,16.3750063 L2.62499374,20.3124969 C2.62499374,21.037238 3.21274945,21.6249937 3.93749061,21.6249937 L17.0624593,21.6249937 Z M15.7499624,9.8125219 L5.24998748,9.8125219 L5.24998748,3.25003755 L13.1249687,3.25003755 L13.1249687,5.21878286 C13.1249687,5.58135371 13.4186463,5.87503129 13.7812171,5.87503129 L15.7499624,5.87503129 L15.7499624,9.8125219 Z M17.7187078,12.7656399 C17.175252,12.7656399 16.7343351,12.3247229 16.7343351,11.7812672 C16.7343351,11.2374109 17.175252,10.7968946 17.7187078,10.7968946 C18.2621635,10.7968946 18.7030804,11.2374109 18.7030804,11.7812672 C18.7030804,12.3247229 18.2621635,12.7656399 17.7187078,12.7656399 Z M15.7499624,19 L5.24998748,19 L5.24998748,15.0625094 L15.7499624,15.0625094 L15.7499624,19 Z" id="print" fill="#757575" fill-rule="nonzero"></path>
    </svg>
