<svg width="19px" height="20px" viewBox="0 0 19 20" version="1.1" xmlns="http://www.w3.org/2000/svg"><path d="M5.5781117,19.3124969 C6.45541941,19.3124969 6.89429356,18.2501787 6.27537566,17.6308603 L4.78936389,16.1502157 L9.1874781,11.7492176 L13.5843506,16.1460902 L12.0995805,17.6308603 C11.4806626,18.2501787 11.9195368,19.3124969 12.7968445,19.3124969
L17.3930669,19.3124969 C17.9350807,19.3124969 18.3749562,18.8726214 18.3749562,18.3306076 L18.3749562,13.7343852 C18.3749562,12.8566369 17.312638,12.4178028 16.6933196,13.0412067 L15.2093906,14.5259768 L10.8092336,10.1250188 L15.20895,5.72814625 L16.6933196,7.21291634 C17.3130786,7.83223478 18.3749562,7.39340068 18.3749562,6.51565238 L18.3749562,1.91942997 C18.3749562,1.37741619 17.9350807,0.93754068 17.3930669,0.93754068 L12.7968445,0.93754068 C11.9195368,0.93754068 11.4806626,1.99985886 12.0995805,2.6191773 L13.5855923,4.09982181 L9.1874781,8.50081992 L4.79060557,4.10394739 L6.27537566,2.6191773 C6.89429356,1.99985886 6.45541941,0.93754068 5.5781117,0.93754068 L0.981889291,0.93754068 C0.439875508,0.93754068 0,1.37741619 0,1.91942997 L0,6.51565238 C0,7.39340068 1.06231818,7.83223478 1.68163662,7.21291634 L3.16556557,5.72406072 L7.56572255,10.1250188 L3.16600617,14.5218913 L1.68163662,13.0371212 C1.06187758,12.4178028 0,12.8566369 0,13.7343852 L0,18.3306076 C0,18.8726214 0.439875508,19.3124969 0.981889291,19.3124969 L5.5781117,19.3124969 Z" id="enter" fill="#757575" fill-rule="nonzero"></path></svg>
