<svg width="23px" height="22px" viewBox="0 0 23 22" xmlns="http://www.w3.org/2000/svg">
    <path d="M14.7787276,15.1223905 L21.7492844,6.95785723
C22.5359894,6.06617006 22.4937322,4.71714373 21.6529139,3.87632543 L19.0607246,1.28417615 C18.2203469,0.443758383 16.8713206,0.401501175 15.9796334,1.18776563 L7.8155007,8.15876303 L14.7787276,15.1223905 Z M7.06164012,19.8231944 L9.14770425,17.7371303 L10.9006774,18.2736166 C11.4638399,18.4458898 12.0757883,18.2732161 12.4654358,17.831458 L13.9235298,16.1235859 L6.81390473,9.01396081 L5.11095927,10.4675287 C4.83069985,10.7149036 4.6032319,11.219026 4.6032319,11.5928121 C4.6032319,11.7162191 4.63243143,11.9121644 4.66840012,12.0302443 L5.20364474,13.7869425 L3.11473676,15.876251 L7.06164012,19.8231944 Z M4.09826827,21.6249937 L5.55227673,20.1709853 L2.80259418,17.4213027 L0,20.3116958 L4.09826827,21.6249937 Z" id="redact" fill="#757575" fill-rule="nonzero">
    </path>
</svg>
