<svg width="21px" height="22px" viewBox="0 0 21 22" version="1.1" xmlns="http://www.w3.org/2000/svg">
    <path d="M2.95311796,21.6249937 C3.49677397,21.6249937
3.93749061,21.1842771 3.93749061,20.6406211 L3.93749061,16.7687393 C5.09866262,16.2739494 6.54534115,15.8613909 8.63108484,15.8613909 C10.8290605,15.8613909 12.6442379,17.2880423 15.4075789,17.2880423 C17.3832536,17.2880423 18.9622713,16.6197376 20.4321813,15.6122536 C20.7883034,15.3681632 20.9999499,14.9628945 20.9999499,14.53115
L20.9999499,4.56029139 C20.9999499,3.60079241 20.0045624,2.96601304 19.1343443,3.37016017 C17.7259576,4.02428574 15.998539,4.67668897 14.3376104,4.67668897 C12.1396748,4.67668897 10.3244573,3.25003755 7.56111631,3.25003755 C6.53757063,3.25003755 5.6207294,3.42984097 4.77021797,3.74274458 C4.85397135,3.52404851 4.92194337,3.15643083 4.92194337,2.92219371 C4.92194337,2.88189916 4.91986055,2.81657072 4.91729708,2.77635628 C4.84463872,1.61001728 3.88850429,0.674510778 2.72088356,0.627006466 C1.40866707,0.573614183 0.328124218,1.62155289 0.328124218,2.92191333 C0.328124218,3.70228981 0.717651564,4.39130261 1.31249687,4.80638455 L1.31249687,20.6406211 C1.31249687,21.1842771 1.75321352,21.6249937 2.29686952,21.6249937 L2.95311796,21.6249937 Z" id="flag" fill="#757575" fill-rule="nonzero">
    </path>
</svg>
