<svg width="16px" height="19px" viewBox="0 0 16 19" version="1.1" xmlns="http://www.w3.org/2000/svg">
    <path d="M14.0624665,18.250003 C14.9941049,18.250003 15.7499624,17.4941371 15.7499624,16.5624987 L15.7499624,10.9375121 C15.7499624,10.0058737 14.9941049,9.25001609 14.0624665,9.25001609 L5.34373726,9.25001609 L5.34373726,5.62542909 C5.34373726,4.23322431 6.45819459,3.07660704 7.85036504,3.06253085 C9.25661169,3.04845465 10.4062252,4.19103005 10.4062252,5.59377481 L10.4062252,6.15627347 C10.4062252,6.62384361 10.782403,7.00002146 11.2499732,7.00002146 L12.3749705,7.00002146 C12.8425406,7.00002146 13.2187185,6.62384361 13.2187185,6.15627347 L13.2187185,5.59377481 C13.2187185,2.64065685 10.8105211,0.239497568 7.85740314,0.250002984 C4.90428518,0.260577534 2.53124397,2.6933911 2.53124397,5.64650906 L2.53124397,9.25001609 L1.68749598,9.25001609 C0.755857573,9.25001609 0,10.0058737 0,10.9375121 L0,16.5624987 C0,17.4941371 0.755857573,18.250003 1.68749598,18.250003 L14.0624665,18.250003 Z" id="unlock" fill="#757575" fill-rule="nonzero"></path>
</svg>
