<svg width="16px" height="19px" viewBox="0 0 16 19" version="1.1" xmlns="http://www.w3.org/2000/svg">
    <path d="M14.0624665,18.2499946 C14.9941049,18.2499946 15.7499624,17.4941371 15.7499624,16.5624987 L15.7499624,9.81251475 C15.7499624,8.88087635 14.9941049,8.12501878 14.0624665,8.12501878 L13.2187185,8.12501878 L13.2187185,5.59377481 C13.2187185,2.64769495 10.8210611,0.250037551 7.87498122,0.250037551 C4.92890137,0.250037551 2.53124397,2.64769495 2.53124397,5.59377481 L2.53124397,8.12501878 L1.68749598,8.12501878 C0.755857573,8.12501878 0,8.88087635 0,9.81251475 L0,16.5624987 C0,17.4941371 0.755857573,18.2499946 1.68749598,18.2499946 L14.0624665,18.2499946 Z M10.4062252,8.12501878 L5.34373726,8.12501878 L5.34373726,5.59377481 C5.34373726,4.19806815 6.47927456,3.06253085 7.87498122,3.06253085 C9.27068789,3.06253085 10.4062252,4.19806815 10.4062252,5.59377481 L10.4062252,8.12501878 Z" id="lock" fill="#757575" fill-rule="nonzero"></path>
</svg>
