<svg width="21px" height="22px" viewBox="0 0 21 22" version="1.1" xmlns="http://www.w3.org/2000/svg"><path d="M17.3905835,9.8125219 C18.2683318,9.8125219 18.7071659,8.75020373 18.0878475,8.13088529 L16.7343351,6.85940395 L20.8071689,2.7865701 C21.0614732,2.53226582 21.0614732,2.11389944 20.8071689,1.85959516 L19.7653986,0.817824798 C19.5110943,0.563520519 19.0927279,0.563520519 18.8384236,0.817824798 L14.7655898,4.89065864 L13.4900229,3.53714624 C12.8706644,2.9178278 11.8124718,3.3566619 11.8124718,4.2344102 L11.8124718,8.82814925 C11.8124718,9.37364775 12.251346,9.8125219 12.7968445,9.8125219 L17.3905835,9.8125219 Z M8.20310544,9.8125219 C8.74860394,9.8125219 9.1874781,9.37364775 9.1874781,8.82814925 L9.1874781,4.2344102 C9.1874781,3.36078749 8.12515992,2.92191333 7.50584148,3.54123177 L6.23436014,4.89065864
L2.16152629,0.817824798 C1.90722202,0.563520519 1.48885563,0.563520519 1.23455135,0.817824798 L0.192780989,1.85959516 C-0.0615232908,2.11389944 -0.0615232908,2.53226582 0.192780989,2.7865701 L4.26561483,6.85940395 L2.91210243,8.13497082 C2.29278399,8.75432931 2.73161809,9.8125219 3.60936639,9.8125219 L8.20310544,9.8125219 Z M2.16152629,21.4322128 L6.23436014,17.3593789 L7.50992701,18.7128913 C8.1292855,19.3322097 9.1874781,18.8933757 9.1874781,18.0156273 L9.1874781,13.4218883 C9.1874781,12.8763898 8.74860394,12.4375156 8.20310544,12.4375156 L3.60936639,12.4375156 C2.73161809,12.4375156 2.29278399,13.4957082 2.91210243,14.1191523 L4.2615293,15.3906336 L0.192780989,19.4634674 C-0.0615232908,19.7177717 -0.0615232908,20.1361381 0.192780989,20.3904424 L1.23455135,21.4322128 C1.48885563,21.686517 1.90722202,21.686517 2.16152629,21.4322128 Z M19.7653986,21.4363383 L20.8071689,20.3945279 C21.0614732,20.1402236 21.0614732,19.7218573 20.8071689,19.467593 L16.7343351,15.3906336 L18.0878475,14.1150667 C18.7071659,13.4957082 18.2683318,12.4375156 17.3905835,12.4375156 L12.7968445,12.4375156 C12.251346,12.4375156 11.8124718,12.8763898 11.8124718,13.4218883 L11.8124718,18.0156273 C11.8124718,18.8933757 12.87479,19.3322097 13.4941085,18.7128913 L14.7655898,17.3634644 L18.8384236,21.4363383 C19.0927279,21.6906026 19.5110943,21.6906026 19.7653986,21.4363383 Z" id="exit" fill="#757575" fill-rule="nonzero"></path></svg>
